<svg width="181" height="70" viewBox="0 0 181 70" fill="none" xmlns="http://www.w3.org/2000/svg">
<path d="M31.7338 49.1529C33.0579 49.1529 34.0923 48.7819 34.8371 48.0399C35.5819 47.2979 35.9543 46.3636 35.9543 45.2369C35.9543 44.0278 35.5819 43.1484 34.8371 42.5988C34.1199 42.0492 33.113 41.7744 31.8165 41.7744H24.4513V49.1529H31.7338Z" fill="white"/>
<path d="M24.4513 31.1808V37.1165H31.6924C34.0095 37.1165 35.1681 36.1273 35.1681 34.1487C35.1681 33.1044 34.8647 32.3487 34.2578 31.8816C33.6785 31.4144 32.713 31.1808 31.3614 31.1808H24.4513Z" fill="white"/>
<path d="M52.8041 49.8536C56.0867 49.8536 57.728 47.7926 57.728 43.6706C57.728 39.576 56.0867 37.5287 52.8041 37.5287C49.5214 37.5287 47.8801 39.576 47.8801 43.6706C47.8801 47.7926 49.5214 49.8536 52.8041 49.8536Z" fill="white"/>
<path d="M75.1092 49.8536C78.3919 49.8536 80.0332 47.7926 80.0332 43.6706C80.0332 39.576 78.3919 37.5287 75.1092 37.5287C71.8266 37.5287 70.1853 39.576 70.1853 43.6706C70.1853 47.7926 71.8266 49.8536 75.1092 49.8536Z" fill="white"/>
<path d="M97.0006 49.7712C100.09 49.7712 101.635 47.6827 101.635 43.5057C101.635 41.692 101.207 40.2218 100.352 39.0951C99.4971 37.9409 98.3937 37.3639 97.042 37.3639C95.7455 37.3639 94.6559 37.8997 93.7732 38.9715C92.918 40.0432 92.4905 41.4447 92.4905 43.1759C92.4905 47.5727 93.9939 49.7712 97.0006 49.7712Z" fill="white"/>
<path d="M119.073 49.8536C122.356 49.8536 123.997 47.7926 123.997 43.6706C123.997 39.576 122.356 37.5287 119.073 37.5287C115.79 37.5287 114.149 39.576 114.149 43.6706C114.149 47.7926 115.79 49.8536 119.073 49.8536Z" fill="white"/>
<path fill-rule="evenodd" clip-rule="evenodd" d="M160.708 13.1676C161.753 13.1676 162.599 12.3187 162.599 11.2715V2.73891C162.599 1.6917 163.446 0.842773 164.49 0.842773H178.67C179.714 0.842773 180.561 1.6917 180.561 2.73891V16.9599C180.561 18.0071 179.714 18.856 178.67 18.856H170.162C169.118 18.856 168.271 19.705 168.271 20.7522V67.2074C168.271 68.2546 167.425 69.1035 166.381 69.1035H1.89069C0.84649 69.1035 0 68.2546 0 67.2074V15.0638C0 14.0166 0.84649 13.1676 1.89069 13.1676H160.708ZM18.9067 49.1702V26.4405H32.4372C35.1405 26.4405 37.1956 27.1138 38.6025 28.4603C40.0093 29.7793 40.7127 31.593 40.7127 33.9014C40.7127 35.083 40.3955 36.141 39.761 37.0753C39.1266 37.9822 38.3266 38.628 37.3611 39.0127C37.9404 39.2325 38.4783 39.5211 38.9749 39.8783C39.499 40.2081 39.9403 40.6477 40.299 41.1973C40.6851 41.7195 40.9886 42.3515 41.2093 43.0935C41.4299 43.808 41.5403 44.6598 41.5403 45.6491C41.5403 48.1498 40.6989 50.1421 39.0162 51.6261C37.3336 53.0825 34.7543 53.8107 31.2786 53.8107H24.4495V49.1702H18.9067ZM52.8041 54.3466C51.149 54.3466 49.6732 54.0855 48.3767 53.5634C47.0802 53.0413 45.9767 52.3131 45.0664 51.3787C44.1837 50.4444 43.5079 49.3177 43.0389 47.9987C42.57 46.6796 42.3355 45.2369 42.3355 43.6706C42.3355 42.0767 42.57 40.6203 43.0389 39.3012C43.5355 37.9822 44.2389 36.8555 45.1492 35.9212C46.0595 34.9868 47.1491 34.2723 48.418 33.7777C49.7145 33.2556 51.1765 32.9945 52.8041 32.9945C54.404 32.9945 55.8384 33.2556 57.1074 33.7777C58.3763 34.2723 59.4521 34.9868 60.3348 35.9212C61.2451 36.828 61.9348 37.9409 62.4037 39.26C62.9002 40.579 63.1485 42.0492 63.1485 43.6706C63.1485 45.2919 62.9002 46.7621 62.4037 48.0811C61.9348 49.3727 61.2451 50.4856 60.3348 51.42C59.4521 52.3543 58.3625 53.0825 57.066 53.6046C55.7971 54.0993 54.3764 54.3466 52.8041 54.3466ZM75.1092 54.3466C73.4541 54.3466 71.9783 54.0855 70.6818 53.5634C69.3853 53.0413 68.2819 52.3131 67.3716 51.3787C66.4889 50.4444 65.8131 49.3177 65.3441 47.9987C64.8752 46.6796 64.6407 45.2369 64.6407 43.6706C64.6407 42.0767 64.8752 40.6203 65.3441 39.3012C65.8406 37.9822 66.5441 36.8555 67.4544 35.9212C68.3647 34.9868 69.4543 34.2723 70.7232 33.7777C72.0197 33.2556 73.4817 32.9945 75.1092 32.9945C76.7092 32.9945 78.1436 33.2556 79.4125 33.7777C80.6814 34.2723 81.7573 34.9868 82.64 35.9212C83.5503 36.828 84.2399 37.9409 84.7089 39.26C85.2054 40.579 85.4537 42.0492 85.4537 43.6706C85.4537 45.2919 85.2054 46.7621 84.7089 48.0811C84.2399 49.3727 83.5503 50.4856 82.64 51.42C81.7573 52.3543 80.6677 53.0825 79.3712 53.6046C78.1022 54.0993 76.6816 54.3466 75.1092 54.3466ZM87.401 60.5709V33.5304H92.5732L92.6146 36.0036C93.8559 33.9975 95.7455 32.9945 98.2833 32.9945C99.5523 32.9945 100.725 33.2418 101.8 33.7365C102.904 34.2311 103.842 34.9456 104.614 35.8799C105.387 36.8143 105.993 37.9547 106.435 39.3012C106.876 40.6477 107.097 42.1729 107.097 43.8767C107.097 45.4156 106.904 46.8308 106.518 48.1224C106.159 49.3864 105.621 50.4856 104.904 51.42C104.187 52.3543 103.304 53.0825 102.256 53.6046C101.235 54.0993 100.063 54.3466 98.7385 54.3466C96.2283 54.3466 94.2145 53.2886 92.6974 51.1727V60.5709H87.401ZM119.073 54.3466C117.418 54.3466 115.942 54.0855 114.646 53.5634C113.349 53.0413 112.246 52.3131 111.335 51.3787C110.453 50.4444 109.777 49.3177 109.308 47.9987C108.839 46.6796 108.604 45.2369 108.604 43.6706C108.604 42.0767 108.839 40.6203 109.308 39.3012C109.804 37.9822 110.508 36.8555 111.418 35.9212C112.328 34.9868 113.418 34.2723 114.687 33.7777C115.984 33.2556 117.446 32.9945 119.073 32.9945C120.673 32.9945 122.107 33.2556 123.376 33.7777C124.645 34.2723 125.721 34.9868 126.604 35.9212C127.514 36.828 128.204 37.9409 128.673 39.26C129.169 40.579 129.417 42.0492 129.417 43.6706C129.417 45.2919 129.169 46.7621 128.673 48.0811C128.204 49.3727 127.514 50.4856 126.604 51.42C125.721 52.3543 124.631 53.0825 123.335 53.6046C122.066 54.0993 120.645 54.3466 119.073 54.3466ZM143.613 39.6722C143.475 38.6829 143.116 37.9959 142.537 37.6112C141.958 37.199 141.047 36.9929 139.806 36.9929C138.785 36.9929 137.999 37.1303 137.447 37.4051C136.896 37.6524 136.62 38.0784 136.62 38.6829C136.62 39.2875 136.896 39.7546 137.447 40.0844C137.999 40.3867 138.827 40.689 139.93 40.9912C141.089 41.321 142.192 41.6233 143.24 41.8981C144.288 42.1454 145.213 42.4202 146.013 42.7225C147.088 43.1622 147.916 43.7667 148.495 44.5362C149.074 45.2782 149.364 46.3087 149.364 47.6277C149.364 49.7437 148.606 51.3925 147.088 52.5741C145.599 53.7558 143.392 54.3466 140.468 54.3466C137.323 54.3466 134.91 53.6871 133.227 52.368C131.572 51.049 130.717 49.359 130.661 47.2979H136.206C136.206 48.2598 136.578 49.0017 137.323 49.5238C138.068 50.046 139.102 50.307 140.427 50.307C141.392 50.307 142.233 50.1559 142.951 49.8536C143.668 49.5238 144.026 48.9742 144.026 48.2048C144.026 47.4903 143.695 46.9819 143.033 46.6796C142.399 46.3774 141.64 46.1163 140.758 45.8965C139.047 45.4843 137.668 45.1133 136.62 44.7835C135.572 44.4537 134.689 44.0553 133.972 43.5881C133.006 42.9836 132.33 42.2966 131.944 41.5271C131.585 40.7577 131.406 39.9195 131.406 39.0127C131.406 38.1608 131.558 37.3639 131.861 36.6219C132.165 35.8799 132.661 35.2479 133.351 34.7258C134.041 34.1762 134.923 33.7502 135.999 33.4479C137.103 33.1457 138.427 32.9945 139.971 32.9945C142.923 32.9945 145.088 33.5579 146.468 34.6845C147.875 35.8112 148.647 37.4738 148.785 39.6722H143.613Z" fill="white"/>
</svg>
